<?xml version="1.0" encoding="UTF-8" standalone="no"?>
<svg id="svg2" xmlns:rdf="http://www.w3.org/1999/02/22-rdf-syntax-ns#" xmlns="http://www.w3.org/2000/svg" height="865pt" width="545pt" version="1.1" xmlns:cc="http://creativecommons.org/ns#" xmlns:dc="http://purl.org/dc/elements/1.1/" viewBox="0 0 545 865">
<path id="path4" d="m241.26 4.2406c-6.09 8.14 11.201 22.959 8.8812 31.639-18.86-6.22-39.9 3.1406-48.87 20.541-0.56 1.68-0.5603 4.7903 1.9797 4.4203 15.82-1.13 32.891 7.7597 39.641 22.03-8.16 4.26-17.21 9.14-19.85 19.2-42.31 10.55-83.111 33.039-109.63 68.339-22.97 29.9-31.72 69.201-27.6 106.34-11.6 1.46-21.029 10.54-23.069 22.08-4.62 31.39 13.28 84.08 52.9 76.45 4.62 9.07 9.89 17.821 16.35 25.691-71.29 54.27-110.92 144.08-114.17 232.5-3.73-0.07-7.7106 0.94969-8.5406 4.9797-14.93 45.07-7.0103 99.171 25.43 134.84 18.97 20.93 50.421 26.669 76.281 16.039 38.56 17.32 77.909 33.21 117.49 48.2 17.01 10.54 36.36 31.36 58.47 18.42 18.16-11.94 16.219-37.71 15.709-56.57-2.48-7.83 5.1312-14.949 12.731-13.989 59.46-5.96 119.3-0.22093 178.43 6.7891 15.17 1.88 31.74 1.0097 45.48-5.8203 7.75-17.3-5.45-35.389-5.85-52.969 4.74-22.99 14.75-47.72 2.55-70.32 0.19-13.97 7.54-34.45-7-44.13-68.62-52.81-132.19-112.47-194.62-171.82 30.93-13.33 57.51-40.51 62.93-74.63 20.87-12.67 36.48-33.88 41.25-57.9 2.47-15.17-11.089-28.191-26.239-23.431 19.25-71.87-14.011-162.74-88.891-186.74-9.23 0.66-14.43-6.91-17.38-14.47 5.96-22.57 26.069-38.75 47.759-45.43-8.7-27.07-49.84-21.41-66.75-3.8-5.9-20.21-24.49-35.86-45.8-36.48zm4.7312 5.7797c18.35 2.58 33.379 17.799 36.959 35.689-2.04 3.06-6.8794 9.4406-0.2094 10.191 10.66-22.43 46.449-35.551 64.339-14.941-27.49 10.25-47.29 35.881-50.85 64.931-6.38 6.88-20.199 5.5991-26.859 5.2391-5.76-0.75-12.28-1.5197-16.47-5.9797 2.61-25.13-19.491-48.429-44.341-48.959 3.09-7.92 10.96-12.721 18.7-15.361 15.7-5 35.46 2.55 42.05 18.85 1.32 2.9 1.5109 9.2597 6.2609 6.7797 1.14-12.02-9.5103-20.439-17.87-27.289-2.96-10.07-7.5794-19.52-11.709-29.15zm-0.1703 79.009c1.51 4.45 1.7291 9.2306 2.4891 13.841-4.41-0.23-6.41-9.0906-10.85-4.5406-0.12 6.6 8.8612 8.6506 12.681 12.591 15.82 6.75 36.029 9.9394 50.669-1.1406 4.88-2.6-1.4788-11.049 3.8812-12.609 7.68 9.24 8.4994 24.33-0.9906 32.6-17.49 12.57-43.18 13.009-61.88 3.0391-21.05-6.1-19.02-42.74 4-43.78zm69.489 18.8c18.96 4.64 37.051 14.791 51.811 27.511 37.22 38.4 53.11 94.959 41.45 147.26-1.56 4.8-0.51 12.17-6.7 13.47 10.85-45.69 1.7191-95.51-24.811-134.23-1.61-2.49-0.2697-11.601-5.2297-7.7906-3.79 30.37-33.37 53.529-63.43 54.409-51.5 5.13-92.719-30.69-137.56-49.3-2.89-1.4-10.31-4.2891-8.75 1.4109 22.13 5.66 22.99 35.129 18.75 53.289-13.32 37.41-48.75 64.46-54.59 105.14-4.72-15.56-12.95-31.1-26.18-40.33-3.04-0.12-5.9506-1.1697-8.7406-2.2797-3.6-28.2 0.80969-57.82 13.83-83.22 22.76-44.49 68.411-73.7 116.16-84.9 0.53 5.45 2.0991 10.689 3.7391 15.889 10.46 17.21 32.871 21.71 51.791 19.85 16.72 0 37.78-9.4888 38.93-28.219-0.32-2.65-0.4503-5.3009-0.4703-7.9609zm58.741 59.13c31.51 45.55 34.17 106.55 14.27 157.44-2.8 4.51 0.4003 8.8294 2.4203 12.909 9.04 33.37-5.6203 70.2-33.32 90.12-72.21 55.22-187.12 29.21-233.67-47.1-5.1-3.24-0.21031-15.109-7.1203-14.139-7.39 11.1-25.019 2.9088-31.489-5.3812-12.3-16.42-20.011-37.749-17.581-58.319 9.5-2.55 18.451 2.7688 25.431 8.5688-15.97 9.76-10.7 35.631 5.7297 41.841 7.22 2.26 3.6997-6.2894-0.47031-6.0094-10.83-5.13-15.1-26.92-1.38-30.79 8.67 6.79 12.599 18.69 14.489 29.38 2.25 3.77 7.2003-0.60031 4.6703-4.3203-4.85-22.03-23.01-44.419-47.05-44.859 3.25-15.51 24.611-18.691 34.841-8.0906 15.16 15.37 19.429 37.49 22.959 57.97 0.05 4.9 8.44 2.9303 5.3-1.4297-8.33-37.43 18.06-69.981 37.93-98.741 16.54-21.09 24.291-50.959 11.931-76.009 43.73 21.53 89.049 53.98 140.61 41.55 23.29-5.21 42.79-22.471 51.5-44.591zm-12.54 92.24c-1.3455-0.0259-2.6732 0.0563-3.9594 0.25-5.49 1.59-23.59 6.31-15.58 12.4 9.43-6.39 24.089-11.5 33.189-1.8797 1.71 1.96 6.8206 9.3991 8.5906 4.0891-2.5638-9.2225-12.823-14.678-22.241-14.859zm-110.16 11.362c-1.9949 0.043-3.6531 0.31437-4.6281 0.8375-8.9 2.22-16.071 8.95-22.611 15.05 0 7.58 8.6406-0.21938 10.891-2.3594 8.22-9.38 23.371-11.061 33.091-3.1109 6.8738-6.5-8.0973-10.603-16.742-10.417zm169.8 25.334c3.5108 0.0506 6.8624 0.84438 7.8468 3.9438-14.11 9.34-24.041 23.439-32.061 38.089-8.25-13.76 0.3303-37.749 16.77-41.539 1.8856-0.12249 4.7131-0.5331 7.4438-0.49375zm10.847 8.1734c4.6 24.55-14.53 48.24-33.47 61.42-4.77-14.26 4.0103-29.49 13.02-41.32 1.1 8-3.11 17.37-8.55 23.8-2.67 2.4 3.1397 6.0203 4.3297 2.4203 13.73-13.74 3.5803-38.28 24.67-46.32zm-82.447 23.153c-0.583 0.003-1.1841 0.0447-1.8032 0.12656-13.76 6.82-12.7 33.599 2.4797 38.509 18.067-2.2862 17.394-38.742-0.6765-38.636zm-103 9.125c-0.555 0.006-1.1278 0.0466-1.7172 0.12187-15.01 6.83-12.91 40.099 6.2 37.789 13.427-5.8997 12.721-38.096-4.4828-37.911zm75.852 58.311c-3.9912 0.0825-9.049 1.0259-10.839 0.86093-5.07 2.24-20.409-3.66-18.369 5.45 11.15 0.11 22.83-0.30093 33.65-2.0109 2.475-3.605-0.4509-4.3825-4.4422-4.3zm-57.473 7.4969c-0.1627 0.004-0.335 0.0163-0.5156 0.0344-5.01 4.92-6.65 12.46-9.3 18.85 4.45 4.79 6.64-7.5312 8.85 0.0688 6.41 23.97 40.861 27.27 52.081 5.8703 1.47-6.87 5.41-11.26 12-13.05-1.21-6.2-9.0806-0.77907-12.841-0.83907-16.46 5.48-33.79 2.2094-50.1-1.9906 1.4725-2.5769 4.869-9.0679-0.175-8.9438zm-129.76 3.4016c2.3339 0.0984 4.5194 3.6022 5.9969 5.4922 9.36 9.07 19.901 16.9 30.861 23.93 46.37 27.79 105.47 36.47 156.09 15.23 7.32 3.1 13.551 10.501 18.761 16.761 56.63 50.83 111.47 104.57 172.45 150.68 19.9 9.73 14.949 36.67 6.1891 52.8-0.32-13.02 1.3909-26.1 0.3109-39.13-1.53-0.48-3.1806-0.60969-4.6406 0.12031-0.28 21.85 2.04 48.369-14.2 65.719 5.73-24 1.82-48.64-1.3-72.7-2.71-1.89-7.3697 2.3112-4.6297 5.5312 1.96 22.44 7.7094 46.479-0.3406 68.109-0.79-24.17-12.579-47.06-21.089-69.77-0.93-2.55-5.49-1.2294-4.6 1.5906 7.72 23.22 21.76 45.42 19.87 70.83-6.28 1.43-7.2303-6.9997-9.9703-10.73-9.96-20.88-23.731-39.791-40.161-56.041-5.1 0.44-1.79 6.0509 0.25 8.2109-4.27 9.73-10.589 23.32-21.859 25.63 3.82-23.18 7.5497-46.821 6.5297-70.411-2.22-1.35-3.6694 0.32062-5.0594 1.8906 0.2 1.39 1.3494 4.21-1.1906 3.2-43.17-11.65-86.58-23.89-127.2-42.83 2.46-11.34 5.9203-22.77 9.8203-33.78 5.32-17.55 9.7603-36.53 16.17-52.92-1.26-3.39 4.1897-8.0306-0.3203-9.9906-5.38 0.78-4.6594 8.14-6.3094 12.15-11.34 36.24-21.051 73.03-33.481 108.93 5.32 17.61 13.95 34.381 17.07 52.681-14.19-7.16-28.109-15.141-41.939-22.981-37.94-61.94-70.43-127.25-109.63-188.5-1.38-2.66-5.8609-0.56938-4.3109 2.2906 38.55 61.74 72 126.52 108.9 189.23 22.65 14.35 48.84 24.059 69.05 42.039 4.74 22.95 4.2403 54.69-15.23 70.07 5.88-21.81 9.8203-45.229 3.4203-67.389-3.14-1.78-6.5197 1.1697-4.1797 5.1297 3.57 20.31 2.7791 43.409-5.5109 62.059-5.38-17.53-7.2394-39.96-15.259-58.13-1.06-3.01-5.7403-0.47-4.4203 2.25 7.09 18.87 9.71 38.959 14.7 58.409-19.44-10.98-21.94-38.14-39.03-52.21-2.12-0.27-3.0906 1.8306-2.6906 3.6406 10.17 10.69 15.39 24.809 23.3 37.089 2 3.79-3.0791 1.9803-5.3891 1.4703-29.8-16.16-55.79-42-62.62-76.4-43.08-29.83-84.78-61.681-125.88-94.241-3.2-1.59-14.801-12.77-15.341-3.9797 8.16 5.48 17 10.3 24.03 17.27 36.67 28.91 73.721 57.44 112.59 83.43 3.33 9.19 5.7203 19.141 10.12 28.111-9.15 1.6-21.39 0.44-30.87-2.29-48.66-9.93-90.51-45.5-141.92-42.82-6.14-0.34-12.171 0.84-18.221 1.62 4.11-85.3 41.301-172.16 109.94-225.12 0.79-0.91 1.5845-1.2547 2.3625-1.2219zm132.05 11.322c15.22 4.06 31.241 5.86 46.731 2.05-6.43 23.96-41.351 21.35-46.731-2.05zm27.1 148.38c41.97 17.53 86.09 31.639 130.43 42.959-0.73 20.36-2.4203 40.76-7.6203 60.52 13.64 12.6 25.921-12.29 32.191-22.37 21.33 13.76 14.319 42.26 11.159 64.25-23.18-1.87-46.04-8.1291-69.28-10.639-6.3-5.35-1.3897-20.08-10.93-22.72-17.18-0.38-34.41-0.68938-51.57 0.29062 3.96-17.7-8.0194-29.861-22.859-36.661-4.37-19.25-12.151-37.48-18.441-56.12 0.9-6.78 4.6503-13.039 6.9203-19.509zm-251.88 69.71c44.125-0.51701 84.896 26.84 126.48 40.098 15.76 4.6 32.119 6.74 48.539 6.05 6.68 10.95 16.401 19.441 26.131 27.581-1.59 13.09-7.6303 25.539-11.57 38.209-7.81-4.07-16.34-6.8703-23.75-11.62-1.2-15.94-4.5997-32.41-14.53-45.37-1.7 0.18-4.7909 1.4009-3.3109 3.5609 6.42 11.52 12.84 25.4 10.92 38.43-8.63-3.51-17.26-8.73-25.18-12.8-13.12-6.51-26.381-13.4-38.991-20.55 8.87-3.05 18.79 4.6003 28.28 4.0703 1.61-5.57-7.2291-5.2203-10.589-7.4703-48.66-13.53-96.391 32.131-97.741 79.741 6.39-0.54 4.3103-12.241 12.67-4.4609 11.23 4.7 22.209 10.361 33.309 15.461-9.87 3.48-21.22 4.4294-31.23 2.1094-6.44-0.85-14.149-3.1897-18.759-7.2297-21.57-11.01-33.15-34.431-40-56.691-8.14-27.48-8.3603-57.86 1.3797-84.82 9.4841-2.8841 18.786-4.1911 27.944-4.2984zm490.51 33.09c8.44 19.2 0.9806 39.52-3.3094 58.65-5.42 15.89 6.97 30.491 6.5 46.291 4.86 14.77-14.56 12.999-23.35 14.989-66.64-4.96-133.95-16.25-200.71-6.9 8-13.33 13.401-28.04 15.291-43.52 9.29-14.08 22.94-24.849 36.93-34.159 3.4-3.23 8.9706-2.7703 12.841-0.72031 27.4 3.37 54.49 9.01 81.7 13.65-0.27 11.99-3.3412 23.72-4.7812 35.6-0.26 2.63 2.99 2.0597 4.7 1.9797 3.95-27.03 9.0209-54.029 10.811-81.289 3.21 7.2 9.8291 13.45 7.3391 22.17-2.34 24.27-0.4688 49.399 7.7312 72.489 0.26 3.02 5.5494 5.6103 6.2594 1.7703-8.73-22.56-10.71-47.84-8.9703-71.85 3.98 10.08 21.07 13.03 28.65 4.75 3.68 11.79-8.2994 26.82-4.6094 36.02 9.38-10.02 10.579-28.46 10.059-42.48 1.63-11.53 12.43-17.701 16.92-27.441zm-192.39 13.509c1.0592 0.0157 2.1933 0.11109 3.4078 0.29062 11.87 0.17 23.74 0.0494 35.62 0.15938 1.67 2.12 2.3791 5.66-0.6609 6.95-12.11 7.14-24 14.681-35.23 23.181-4.53 5.1-11.31 9.5697-15.13 15.93 0.019-14.526-9.5456-46.831 11.992-46.511zm40.797 10.77c4.07 0.28 3.8012 11.33-3.1688 5.5-6.47-0.14 0.3888-4.67 3.1688-5.5zm-256.2 6.8109c4.34 0.18 8.5006 3.1097 11.791 5.6797 30.84 15.68 61.36 32.14 92.85 46.52-2.58 12.88-9.6406 24.73-12.791 37.5-0.02 3.66 4.4412 1.2694 5.0312-0.89062 9.9-24.61 17.85-50 26.95-74.87 9.84 6.37 19.63 16.331 32.5 14.311 11.36 17.18 38.209 5.8797 40.869-12.47 4.68 34.41-13.189 69.19-40.139 90.52 2.24 12.44 17.42-17.411 16.03-2.4813 0.04 11.1-0.069 22.35-3.2094 33.1-2.04 11.74-13.8 20.571-25.8 17.941-17.55 0.14-26.321-18.081-42.141-22.091-55.27-21.02-109.82-44.039-162.91-70.119 6.38-29.86 30.259-57.03 60.969-62.65zm132.36 22.788c-0.3679-0.0194-0.7513 0.0619-1.1282 0.27187-15.59 29.55-20.371 66.259-13.891 99.259-0.56 3.35 5.2894 5.2406 5.3594 1.5406-7.29-32.68-1.07-66.911 11.5-97.491 1.0318-1.5275-0.2468-3.497-1.8406-3.5812zm42.13 16.884c-0.3862-0.035-0.8203 0.0403-1.2984 0.25781-5.16 17.25-8.97 37.029-18.95 53.309-2.42 2.79-3.9006 11.13 1.8094 8.0203 9.18-18.1 17.891-37.13 20.511-57.47 0.3819-1.7388-0.3982-3.9653-2.0719-4.1172z"/>
</svg>
