<?xml version="1.0" encoding="utf-8"?>

<!DOCTYPE svg PUBLIC "-//W3C//DTD SVG 1.1//EN" "http://www.w3.org/Graphics/SVG/1.1/DTD/svg11.dtd">
<svg version="1.1" id="Layer_1" xmlns="http://www.w3.org/2000/svg" xmlns:xlink="http://www.w3.org/1999/xlink" x="0px" y="0px"
	 viewBox="0 0 1424 687" enable-background="new 0 0 1424 687" xml:space="preserve">
<g>
	<path d="M678.49,41.7c5.93-1.3,12.08,0.72,17.26,3.56c5.6,4.13,9.38,10.81,10.03,17.75c-0.05,6.95-3.33,13.67-8.17,18.57
		c-10.81,11.15-33.06,6-37.38-9.09c-3.33-9.92,0.45-22.14,9.53-27.65C672.44,43.28,675.41,42.2,678.49,41.7z"/>
	<path d="M124.69,110.8c6.6-3.52,13.59-7.33,21.32-7.03c5.44,0.18,11.28,0.81,15.86,4.02c-0.33,0.67-0.98,2-1.31,2.66
		c1.8,1.5,4.03,2.66,5.24,4.73c1.87,4.06,1.88,8.64,3.21,12.85c1.99,1.54,5.19,1.54,6.35,4.06c-0.61,2.21-2.39,3.77-3.69,5.57
		c0.48,0.6,1.43,1.82,1.9,2.43c-1.06,0.98-2.14,1.95-3.22,2.92c0.58,0.48,1.74,1.44,2.33,1.93c-1.15,1.01-2.45,1.87-3.41,3.07
		c0.02,2.82,1.42,5.34,1.96,8.06c-6.59,3.59-14.43,5.07-20.26,9.96c-1.81,4.3,0.51,9.49,2.64,13.34c4.28,2.75,10.03,3.33,13.3,7.61
		c4.3,4.96,5.03,11.64,5.68,17.88c2.66,7.51,8.51,13.34,12.11,20.38c1.31,2.9,0.44,6.49-1.82,8.67c-4.09,4.55-9.69,8.45-10.98,14.82
		c-1.57,8-0.63,16.2-0.29,24.28c0.5,11.05,1.54,22.08,1.76,33.14c0.22,1.87,1.59,3.31,2.59,4.84c5.99,7.79,12.03,15.56,18.46,22.99
		c4.65,2.66,10.26,3.09,14.92,5.76c2.55,1.45,3.19,4.79,5.66,6.32c3.68,1.79,7.98,1.58,11.71,3.18c2.32,1.97-0.8,4.81-2.79,5.39
		c-3.37-0.16-6.51-1.74-9.91-1.74c3.4,5.53,8.51,9.66,12.66,14.58c1.41,1.37,1.21,3.46,1.53,5.25c-2.37-0.14-3.87-2.06-5.6-3.4
		c-3.31-2.74-6.5-5.64-9.96-8.19c3.37,5.29,8.5,9.29,11.37,14.94c0.45,0.97,1.45,2.19,0,2.83c-6.35-3.23-9.76-10.02-15.36-14.24
		c2.79,4.99,6.22,9.63,8.63,14.84c-6.49-1.18-8.89-8.28-12.88-12.69c1.11,3.44,2.54,6.82,2.84,10.47c-0.7-0.2-2.1-0.59-2.79-0.79
		c-1.67-3.69-2.09-7.95-4.56-11.27c-2.82-3.93-8.08-5.31-10.59-9.51c-1.66-4.08-1.51-8.95-4.5-12.45c-3.66-3.21-7.64-6.03-11.4-9.12
		c3.4,8.24,6.1,16.85,6.56,25.82c2.19,12.63,6.64,24.81,11.55,36.62c5.9,12.99,12.94,25.43,20.04,37.79
		c1.93,3.86,5.91,6.01,8.11,9.67c-3.11,5.06-10.64,3.12-14.26,7.67c2.63,3.8,7.64,5.63,9.22,10.16c-0.78,3.67-4.3,5.65-7.22,7.49
		c-2.69,1.4-5.32,3.47-8.49,3.45c-3.59,0.09-6.31,3.12-9.92,3.35c-5.32,0.24-10.66-1.47-15.97-0.43c-4.61,0.97-8.18,4.48-12.79,5.47
		c-5.27,1.22-10.74,1.82-16.13,1.22c-5.38,24.87-10.45,49.81-14.9,74.87c0.9,0.08,2.69,0.23,3.59,0.31
		c2.32-3.94,7.42-5.21,11.5-3.42c1.38-2.19,3.07-4.17,5.25-5.59c3.37-2.13,3.91-6.56,6.97-8.98c5.14-4.32,10.6-8.22,15.98-12.23
		c3.34-2.37,4.33-6.96,8.05-8.9c3.37-1.86,7.1-3.34,9.54-6.46c4.84-5.75,9.19-12.09,11.83-19.17c2.45-5.68,3.23-12,6.46-17.35
		c4.49-7.7,9.4-15.19,12.7-23.51c2-5.62,7.68-8.35,10.99-13.03c4.52-5.92,10.34-11.49,11.73-19.12c1.07-4.92,2.43-9.78,3.06-14.79
		c0.68-4.48,0.61-9.04,1.48-13.49c0.84-4.41,3.64-8.04,5.92-11.78c-7.62-1.66-15.12-6.89-17.32-14.69
		c-2.05-7.73-1.66-16.13,1.68-23.45c1.29-4.91,5.84-7.66,9.85-10.17c3.63-2.1,7.22-4.81,11.58-4.97c6.4-0.29,12.86,0.09,19.15,1.29
		c6.73,1.14,11.64,6.87,14.15,12.89c1.41,3.05-1.19,6.26-0.31,9.31c1.82,2.41,5.04,3.02,7.33,4.86c0.12,1.84-1.85,2.66-2.88,3.86
		c0.16,2.86-0.53,5.67-1.91,8.18c0.35,1.36,0.73,2.71,1.13,4.07c6.1-0.59,12.4-0.27,18.25-2.38c4.37-1.59,8.63-3.58,12.52-6.15
		c9.51-6.69,18.15-14.55,27.67-21.22c2.26-3.68,5.96-6.51,9.91-8.08c2.8,1.45-1.25,3.86-2.25,5.3c2.3-1.2,4.39-2.76,6-4.82
		c0.96-1.45,2.52,0.41,2.64,1.54c0.02,1.57-0.17,3.13-0.26,4.7c2.26,2.93-0.68,5.65-2.86,7.47c-2.16,1.99-5.24,2-7.98,2.3
		c-2.71,2.11-5.72,4.06-7.54,7.07c-2.28,3.66-4.19,7.73-7.64,10.48c-8.07,6.03-17.97,9.22-25.75,15.63c0.9,1.74,1.99,3.39,3.35,4.82
		c8.58-1.67,16.91-4.38,25.3-6.83c8.48-2.68,17.13-4.91,25.39-8.25c2.04-0.75,4.34-1.59,6.48-0.64c4.32,1.58,6.14,6.93,5.09,11.15
		c-1.37,3.79-4.65,6.52-8.13,8.35c-1.68-2.04-2.18-5.42-5.04-6.17c-2.4-0.82-5.17-1.03-7.45,0.24c-8.38,4.24-16.05,9.93-24.94,13.15
		c-5.62,1.99-11.43,3.4-17.15,5.08c0.8,4.37-3.55,6.94-6.54,9.18c-3.6,2.66-7.29-0.76-10.9-1.32c-1.61,3.23,0.09,7.04-0.98,10.45
		c-2.01,6.96-5.68,13.37-7.27,20.47c-1.22,6.15,0.43,12.48-0.96,18.61c-1.61,7.53-3.77,14.95-6.38,22.2
		c-0.77,1.76-1.38,3.9-3.24,4.83c-3.02-0.25-5.98-1.89-9-0.71c-2.13,0.58-5.18,1.89-4.8,4.6c0.57,6.15,2.13,12.21,4.04,18.09
		c1.47,4.82,6.99,7.39,7.45,12.66c1.05,11.43,1.6,23.02,0.67,34.46c-0.83,0.1-2.47,0.28-3.29,0.3701
		c-1.02,12.11-1.47,24.28-1.18,36.43c0.17,3.47,0.19,7.13,1.86,10.28c2.58,5.1,7.32,8.56,11.63,12.1
		c4.76,3.8199,10.99,5.33,15.51,9.48c-0.86,2.8-2.77,5.45-5.73,6.22c-3.89-0.23-7.47-1.95-11.1-3.19
		c-5.75-2.36-11.88-3.62-18.01-4.5c-3.65-0.25-6.79-3.29-7.98-6.61c-0.25-5.74,2.92-11.31,1.57-17.04c-1.63-7-3.06-14.05-5.31-20.89
		c-2.33-7.33-2.38-15.09-2.25-22.7c-6.01,1.23-12.05,3.12-18.25,2.62c-1.58-0.06-2.99-1.28-3.28-2.83
		c-0.82-4.31,1.29-8.51,0.96-12.81c-0.61-2.97-2.39-5.48-4.51-7.56c-8.6,6.03-15.32,14.29-23.54,20.78
		c-2.69,1.87-4.74-1.81-6.88-2.95c-5.75-3.49-11.51-7.1-17.69-9.76c-11.61,3.66-22.01,11.1-29.72,20.53
		c-2.64,3.31-5.9,6.57-6.6,10.93c-0.95,7.57-0.22,15.26-1.25,22.83c-0.16,1.41-0.85,2.93-2.42,3.18c-3.44,0.71-7.66-0.6-9.28-3.92
		c-2.29-4.43-3.88-9.25-4.69-14.17c-0.57-3.69,0.6-7.33,0.61-11c-1.9-4.08-4.34-7.97-4.87-12.54c-1.27,7.42-1.26,14.98-1.15,22.49
		c0.28,5.58,0.44,11.43,2.87,16.58c2.71,4.86,8.28,6.81,13.05,9.02c7.64,4,17.53,4.37,22.91,11.96c2.04,2.23-1.3,3.84-3.22,4.06
		c-10.8,2.31-22.23,4.1-33.08,1.18c-3.5-0.73-5.65-3.95-8.96-5.05c-4.17,0.68-6.07,5.48-10.12,6.49c-3.41,0.62-7.39,0.32-9.98-2.23
		c-1.67-1.88-1.64-4.6-1.58-6.95c0.32-5.14,1.04-10.43,3.55-15c2.06-3.77,4.06-7.75,4.23-12.13c0.53-9.66-0.67-19.31-0.95-28.95
		c-0.19-5.91,1.13-11.74,0.91-17.64c-10.5,12.14-18.41,26.22-27.65,39.3c-2.77,3.77-2.62,8.83-1.35,13.14
		c1.83,6.94,6.56,12.51,10.73,18.17c3.64,4.66,7.37,9.62,12.75,12.37c2.45,1.31,5.2,2.32,6.85,4.71c-3.18,2.84-7.59,3.18-11.6,3.89
		c-5.11,0.81-10.59,0.09-14.85-3c-7.91-5.69-15.43-11.91-23.42-17.49c-1.73-1.22-1.69-3.52-2.21-5.35c-0.92,1.41-1.29,3.81-3.38,3.8
		c-4.71-0.93-9.03-3.37-12.95-6.05c-4.09-2.86-3.94-9.1-1.3-12.88c2.85-3.24,6.7-5.34,9.96-8.1c6.21-4.6801,9.97-11.65,13.85-18.2
		c5.42-9.62,10.37-19.55,14.15-29.94c3.44-9.55,4.65-19.67,6.82-29.53c2.5-11.84,9.2-22.12,15.19-32.42
		c1.87-3.42,5.28-5.97,6.08-9.92c-5.54-3.31-12.15-3.9-17.93-6.59c-2.3-0.71-2.27-3.55-1.14-5.24c4.13-6.56,5.51-14.38,7.11-21.84
		c-1.17-1.02-3.66-1.18-3.68-3.12c-0.18-5.62,2.06-11.62-0.31-17c-3.33-4.1-9.49-2.76-13.68-5.31c-1.63-2.63,1.37-5.11,1.76-7.73
		c1.84-8.86,3.39-17.94,2.81-27.02c-1.14-11.4-3.49-22.63-5.57-33.89c-0.35-2.68-1.26-5.99,0.92-8.17c2.93-3.4,6.46-6.56,7.97-10.91
		c0.97-2.36-0.67-4.64-1.46-6.79c-6.15-12.95-13.6-25.23-19.67-38.21c-2.71-6.08-5.92-12.21-6.4-18.96
		c-0.2-8.86,5.61-16.04,10.81-22.6c5.25-6.43,8.86-13.95,13-21.1c5.09-8.96,10.31-17.85,15.14-26.96c1.46-2.08,0.1-4.53-0.18-6.74
		c4.86-3.44,10.85-4.65,16.34-6.75c1.72-0.82,4.38-0.9,5.03-3.01c-1.4,1.44-5.09,2.18-5.39-0.57c-1.88,0.59-3.77,1.1-5.7,1.47
		c0.41-3.17,4.15-3.81,6.27-5.57c-3.05,0.22-6.01,1.26-9.08,1.11c0.82-1.36,1.71-2.68,2.69-3.92c2.89-1.66,6.11-2.66,9.05-4.23
		c-3.19-4.6-7.15-9.32-7.19-15.22c-0.15-6.33,1.02-12.79,3.93-18.45C113.36,117.66,119.14,113.98,124.69,110.8 M80.35,250.44
		c-2.54,4.05-3.73,8.91-3.03,13.67c1.21,9.46,5.74,18.06,10.26,26.31c2.01,3.51,3.04,7.5,5.29,10.89c2.36-3.28,4.23-6.91,5.53-10.73
		c0.9-2.82-1.12-6.39,1.57-8.56c3.83-4.24,9.58-8.52,8.69-14.96c-1.45-13.26-5.4-26.07-8.2-39.07
		C93,234.72,85.52,241.73,80.35,250.44z"/>
	<path d="M1052.1,136.2c4.1901-1.74,8.29-4.13,12.91-4.44c9.86-0.06,20.1799,1.14,28.75,6.38c7.03,4.65,8.4,13.71,10.61,21.22
		c2.39,7.79,2.3101,15.94,2.76,23.98c7.33-1.23,13.8-5.21,20.9399-7.13c14.2001-4.95,29.8101-3.65,44.0601,0.39
		c9.25,2.64,17.84,8.1,22.95,16.4c5.7201,9.41,13.55,17.18,20.6001,25.56c9.98,11.34,20.8099,22.36,34.22,29.63
		c8.38,4.57,17.3099,8.2,25.15,13.73c8.36,5.91,16.2999,12.4,24,19.14c8.35,7.65,17.4299,15.41,21.5,26.33
		c3.5399,9.81,5.83,20.15,6.21,30.59c0,3.1,0.0699,6.42-1.61,9.16c-1.9301,3.37-5.2001,6.55-4.52,10.78
		c1.03,6.08,4.91,11.42,4.9301,17.74c0.36,12.83-0.6001,25.79,1.8099,38.48c2.6801,17.76,8.72,35.07,18.3,50.31
		c4.1499,7.05,9.0399,13.66,12.97,20.84c1.67,2.72-1.92,4.6-3.23,6.59c5.6899,7.76,13.4,14.58,15.9099,24.22
		c3.1101,13.05,3.66,26.51,5.27,39.8c2.62,17.77,2.4701,35.83,5.23,53.5699C1383,617.65,1391.76,621.73,1393.4,629.7
		c1.14,4.81,2.6799,10.27,0.26,14.94c-1.5901,3.15-5.49,3.84-8.6901,3.77c-5.23-0.2-10.5699-0.28-15.59-1.91
		c-2.76-0.87-5.73-1.31-8.5699-0.61c-11.38,3.36-22.9501,6.53-34.79,7.79c-8.12,0.07-16.5801-1.09-23.92-4.7
		c-4.76-2.1-6.74-8.93-2.78-12.69c11.9801-3.08,24.05-6.06,35.8301-9.94c6.7899-2.03,12.6699-8.24,13.53-15.34
		c-1.1001-8.2-3.8501-16.07-5.88-24.06c-4.5901-16.41-9.3201-32.78-14.7201-48.95c-2.6599-7.49-4.96-15.21-8.9399-22.13
		c-1.03-2.35-4.01-2.47-6.04-1.47c-6.0399,2.5099-10.73,7.69-17.1899,9.2599c-4.75,1.16-9.2101-1.95-12.26-5.2599
		c-5.4601-6.13-9.0801-13.59-14.03-20.09c-5.23-6.88-7.83-15.27-12.34-22.56c-1.17-1.84-3.76-4.85-5.91-2.62
		c-5.7,6.63-8.62,15.1-12.16,22.97c-3.36,8.83-7.61,17.44-9.34,26.78c-0.46,1.14-1.48,2.38-2.8199,2.33
		c-8,0.61-16.3601-1.25-24.0701,1.59c-3.25,1.08-3.41,5.01-2.46,7.75c2.53,7.55,7.4,14.31,8.4299,22.35
		c1.38,10.77-1.6899,21.37-2.5499,32.04c-0.59,12.02-1.4401,24.2,0.76,36.11c1.89,9.58,7.0699,18.25,8.2799,27.98
		c0.42,4.87-4.8899,7.23-8.9399,7.67c-21.71,2.65-43.63,2.6-65.46,3.07c-7.1001-0.09-14.26,0.37-21.29-0.66
		c-4.5-1.85-8.37-9.3-3.35-12.7c6.4299-4.44,13.9299-7.31,21.64-8.53c7.23-1.18,14.27-3.24,21.48-4.55
		c4.22-1.02,9.4299-1.68,11.66-5.97c4-7.58,1.13-16.29,0.1799-24.24c-4.59-23.87-9.7999-47.62-15.11-71.34
		c-1.04-3.97-1.6801-8.07-3.16-11.89c-2.15-0.66-5.46-0.12-6.0599-2.96c-3.51-11.24-4.5901-23.15-4.29-34.89
		c0.36-6.72,0.8-13.96,4.86-19.62c2.77-3.81,6.23-7.08,8.67-11.13c3.29-5.29,7.45-10.26,9.08-16.39
		c2.0801-9.21,9.27-16.02,12.72-24.66c2.55-6.93,8.4701-11.59,13.03-17.13c2.53-2.65,0.29-6.74,2.34-9.63
		c2.8101-4.53,6.2001-8.67,9.16-13.1c0.51-1.03,1.6-1.98,1.34-3.22c-8.4099-15.08-21.74-26.73-36.1499-35.89
		c-17.0901-11.11-34.39-21.87-51.65-32.71c-1.61-0.97-3.13-2.12-4.88-2.78c-17.4401,1.16-32.14,11.85-45.23,22.52
		c-2.4501,2.65-5.41-0.24-7.3401-2.01c-2.4099-2.13-5.45-5.42-8.95-3.56c-21.15,8.7-41.48,19.28-62.26,28.79
		c-3.32,1.38-6.94,1.68-10.47,1.95c-22.47,1.37-44.94,2.53-67.37,4.39c-5.18,0.51-10.43,0.8-15.49,2.05
		c-7.58,1.87-13.81,6.95-21.25,9.17c-9.02,2.75-18.56,2.38-27.88,2.42c-10.35-0.12-20.66,2.66-31.01,1.18
		c-1.16-0.2-2.41-1.31-1.81-2.59c1.65-4.25,6.18-8.33,11-6.17c8.88-6.06,17.53-12.46,26.1-18.96c-4.12-1.39-8.29-2.96-11.81-5.54
		c-2.53-2.13-1.56-5.8-0.83-8.55c7.16,0.98,14.2401,2.46,21.41,3.36c5.62,0.81,11.35-0.35,16.95,0.72c3.64,0.64,6.7,2.85,10.13,4.1
		c4.24,1.3,8.74,0.46,13.0099-0.3c11.21-2.14,22.7-2.36,33.85-4.87c8.3-1.61,16.17-4.83,23.84-8.32c4.16-1.74,8.2-3.95,12.69-4.76
		c4.76-0.83,9.61-0.49,14.42-0.56c1.38-1.37,2.85-2.67,4.6-3.58c8.26-4.66,16.48-9.37,24.7-14.1c-0.2-0.61-0.6-1.83-0.8-2.44
		c10.87-5.44,22.1-10.15,32.84-15.85c4-1.88,3.8999-7.15,7.13-9.83c9.08-8.55,18.24-17.05,27.0299-25.91
		c2.2001-2.17,3.8401-4.83,5.14-7.62c-1.59-2.58-4.75-4.14-7.72-3.09c-4.5,2.03-8.01,5.98-12.83,7.32
		c-3.66-0.12-6.8201-2.65-8.28-5.91c-0.7001-2.33-3.4501-2.04-5.1-3.26c-0.37-4.69,1.7999-9.12,1.6599-13.77
		c-3.8099,0.07-7.58,0.86-11.39,0.63c-1.9099-0.72-1.2999-3.1-1.74-4.66c-3.0199,0.28-8.63,3.26-9.5399-1.18
		c0.1-6.13,2.4399-11.96,2.89-18.05c-1.3-1.53-3.2301-2.43-4.3101-4.13c-0.5699-4.36,0.6901-8.72,0.3101-13.08
		c-1.4-2.77-5.6201-1.6-7.5101-3.95c-1.03-2.2-1.85-5.5,0.63-7.07c4.69-4.27,6.55-10.67,10.85-15.22
		C1037.65,144.08,1044.48,139.29,1052.1,136.2z"/>
	<path d="M507.18,322.28c1.04-2.21,0.23-5.69,2.7-6.96c3.28,1.81,0.14,6,0.25,8.87c1.55-1.89,2.57-4.77,5.56-4.5
		c-0.25,1.82-0.92,3.52-1.69,5.17c1.3-0.85,2.63-1.66,3.99-2.41c-0.48,2.74-2.35,6.46,0.76,8.35c0.27-2.73,0-5.58,1.11-8.15
		c4.18,1.86,1.93,6.62,2.27,10.14c1.11-2.56,1.57-5.58,3.77-7.5c0.36,2.99,0.09,6-0.36,8.97c1.2401-1.96,1.87-5.08,4.76-5.09
		c-2.02,7.07-3.68,14.32-7.22,20.84c-5.57,10.41-11.28,21.16-12.49,33.11c-0.98,9.63-7.81,17.38-9.5,26.8
		c-0.6,3.26,2.29,5.58,4.16,7.82c3.05,3.07,4.28,7.33,5.53,11.35c2.79,9.05,4.65,18.37,5.68,27.78c2.72,24.21,5.29,48.45,7.25,72.73
		c-5.61-0.84-10.72,3.35-16.32,1.73c-2.83-0.3-6.19-2.39-8.71-0.38c-0.72,4.01,0.65,7.98,1.06,11.95
		c1.12,6.39,0.06,12.87-0.69,19.25c-1.56,10.62-2.54,21.31-3.89,31.96c-0.54,5.29-1.46,10.6-1.18,15.95
		c0.23,3.03,2.25,5.46,4.06,7.76c2.58,3.18,4.56,6.95,5.13,11.05c-1.77,1.89-4.18,4.05-6.99,3.05c-3.02-1.62-5.52-4.05-8.6-5.56
		c-4.3-2.44-8.61-7.71-6.21-12.83c3.62-20.29,2.35-41.07,1.46-61.54c-0.44-6.87-0.32-14.07-3.3-20.44
		c-0.65-2.21-3.35-1.34-5.06-1.62c0.03,5.43,0.37,11.19-2.01,16.24c-3.03,5.59-9.19,8.31-13.22,13.03
		c-7.62,8.88-13.84,18.83-20.34,28.52c-2.62,3.94-4.95,8.38-4.88,13.25c-0.21,4.8101,2.23,9.26,5.4,12.71
		c1.73,2.9,2.89,6.48,2.32,9.88c-1.36,3.71-6.34,4.13-9.24,2.02c-4.89-2.47-7.51-7.53-9.12-12.52c-1.2-4.52-8.32-5.73-7.41-11.08
		c2.07-4.63,5.93-8.18,9.2-11.96c3.09-3.27,3.79-7.89,5.05-12.03c2.48-9.52,7.32-18.5,14.28-25.48c3.22-3.42,7.27-6.25,9.4-10.56
		c1.68-3.48,0.25-7.4-0.31-10.99c-4.12-0.23-8.46-0.37-12.21-2.29c-2.75-1.38-3.02-4.88-3.14-7.58c-0.01-8.07,1.67-16.01,2.36-24.03
		c0.68-7.26,2.32-14.45,5.2-21.16c4.38-10.5,9.14-20.83,13.9-31.16c2.39-4.75-0.57-9.81-0.1-14.73c0.5-6.94,1.98-13.79,2.07-20.75
		c-5.36-0.6-6.21-6.45-8.84-10.1c-3.07,3.96-3.39,9.32-6.34,13.32c-2,1.72-5.14,4.28-7.79,2.54c0.77-2.44,2.27-4.57,2.99-7.02
		c-0.68-3.39-3.08-6.44-2.59-10.04c0.41-3.57,1.58-7.15,3.73-10.06c1.68-2.39,4.7-3.24,6.6-5.38c2.05-6.8,6.03-14.28,13.1-16.81
		c6.92-1.25,14.14-0.67,20.97,0.96c3.36,0.9,2.01,4.84,1.94,7.33c1.66,0.42,3.78-0.06,5.11,1.27c0.38,1.21,0.64,2.45,0.77,3.74
		c3.13-3.84,6.64-7.46,8.96-11.87c1.68-3.15,0.84-6.79,1.11-10.18c0.2-5.28,1.1-10.55,0.83-15.84c-0.06-5.87-4.84-10.48-4.43-16.44
		c2.61,0.07,4.15,2.13,5.81,3.82c-0.17-3.84-0.65-7.65-0.82-11.49C506.28,315.97,506.05,320.21,507.18,322.28 M512.36,336.08
		c0.29,0.39,0.87,1.16,1.17,1.54c3.35-1.32,1.6899-4.64,0.83-7.11C513.64,332.35,512.99,334.21,512.36,336.08 M509.8,340.25
		c0.53,3.75,1.25,7.47,2.27,11.13c1.05-2.09,2.35-4.07,3.14-6.28C513.92,343.01,511.66,341.76,509.8,340.25z"/>
</g>
</svg>
