<?xml version="1.0"?>
<svg xmlns:rdf="http://www.w3.org/1999/02/22-rdf-syntax-ns#" xmlns="http://www.w3.org/2000/svg" xmlns:cc="http://web.resource.org/cc/" xmlns:dc="http://purl.org/dc/elements/1.1/" xmlns:svg="http://www.w3.org/2000/svg" id="svg2" viewBox="0 0 744.09 408" version="1.0">
  <g id="layer1">
    <path id="path1356" fill="#eb00c3" d="m73.728 263.8c7.228-7.76 7.758-12.31 9.106-17.86-5.22 5.86-28.904-4.41-15.467-25.75 4.753-7.55 26.582-19.62 41.063-34.24l21.16-21.38-0.52-5.14c-0.45-4.4-4.41-17.21-5.74-18.57-0.24-0.25-4.55-0.49-9.58-0.54-10.47-0.11-11.91-0.95-11.74-6.86 0.07-2.23-0.43-4.73-1.11-5.55s-1.312-3.65-1.404-6.28-0.346-4.91-0.563-5.05c-0.218-0.15-1.742-1.12-3.388-2.15l-2.992-1.87 4.356-6.42c4.301-6.33 4.351-6.508 3.681-13.761-0.844-9.196 0.79-15.553 5.49-21.353 1.96-2.416 3.9-5.507 4.32-6.869 1.05-3.431 7.7-7.569 14.14-8.791 2.96-0.562 6.84-1.587 8.63-2.276 4.49-1.736 17.4-1.782 23.27-0.084 5.11 1.483 11.7 7.443 17.76 16.079 3.62 5.173 7.81 6.676 11.66 4.193 2.96-1.908 12.14-3.709 9.54-1.872-1.33 0.937-1.13 1.156 1.08 1.198 3.2 0.06 8.18 3.229 5.08 3.229-2.46 0-2.31 0.975 0.65 4.27 2.91 3.231 5.44 10.085 5.32 14.379-0.04 1.656-1.08 4.277-2.29 5.818-1.22 1.55-3.29 6.16-4.61 10.25l-1.54 4.78c-0.92 1.79-0.83 3.59 2.33 5.38 2.46 2.12 2.75 2.74 1.28 2.74-2.2 0-2.39 1.37-0.65 4.63 1.24 2.32 1.61 4.21 1.87 9.65 0.08 1.69 1.94 4.99 4.47 7.91 4.03 4.66 5.27 7.89 3.64 9.52-0.38 0.38-1.63-0.52-2.78-1.98-3.06-3.89-3.96-3.33-4.33 2.71-0.44 7.24-2.63 5.82-4.21-2.74-1.53-8.25-1.79-8.59-4.37-5.64-1.97 2.27-2.1 2.29-1.63 0.29 1.48-6.37 1.78-10.28 0.78-10.28-1.47 0-6.59 7.63-6.59 9.82 0 1.94-4.97 4.65-6.64 3.62-0.59-0.37-2.01 0.19-3.16 1.23-2.04 1.85-2.1 1.79-2.1-2.06 0-4.08-1.7-5.33-2.93-2.14-1.04 2.71 5.41 12.93 18.08 28.64 8.65 10.74 14.08 34.28 14.06 60.97 0 12.19 3.06 28.9 7.06 38.45 1.37 3.27 3.08 8.87 3.79 12.44s2.45 10.88 3.86 16.24c2.56 9.7 3.34 14.21 6.41 36.72 2.38 17.46 3.37 15.77-9.16 15.77h-10.78l-1.15-4.6c-1.97-7.87-4.39-16.07-8.21-27.87-6.23-19.23-6.69-20.89-7.78-28.14-0.97-6.47-3.23-13.34-9.05-27.6-1.22-2.97-3.79-9.9-5.71-15.4-1.93-5.49-3.74-10.22-4.02-10.51-1.21-1.21-11.92 22.02-13.28 28.79-1.56 7.75-4.11 25.68 1.62 33.52 3.33 4.56 23.5 20.77 26.93 51.12 0.04 0.38-20.42 0.69-45.37 0.69 0 0-24.06-0.31-45.366 0-44.205 0.63-56.68-56.49-22.276-93.42zm96.202-129.47c0.35-0.57-0.35-1.56-1.56-2.2-1.87-1.01-2.19-0.85-2.19 1.02 0 2.24 2.59 3.05 3.75 1.18zm1.66-5.47c0-0.59-0.81-1.08-1.79-1.08-1.58 0-1.55-0.27 0.27-2.27 1.13-1.26 3.52-3.04 5.3-3.97 1.92-0.99 2.68-1.88 1.86-2.16-1.1-0.37-1.12-0.81-0.1-2.04 0.72-0.86 1.45-2.89 1.62-4.49 0.17-1.61 0.89-5.18 1.59-7.93 1.32-5.106 0.7-10.689-1.18-10.689-0.57 0-1.31 1.339-1.65 2.976-1.65 8.043-3.06 11.383-7.02 16.663-3.63 4.82-4.31 6.56-4.31 10.91 0 4.79 0.19 5.16 2.7 5.16 1.49 0 2.71-0.48 2.71-1.08z"/>
    <path id="path1382" d="m95.274 353.7c-0.401-1.94-1.926-7.75-3.388-12.91-1.462-5.17-2.816-11.25-3.009-13.53-0.193-2.27-1.352-7.54-2.576-11.71-4.88-16.61-6.83-55.78-3.467-69.61 0.994-4.08 0.856-5.06-1.096-7.81-2.798-3.92-3.826-12.11-2.254-17.94 1.659-6.15 4.725-9.78 28.946-34.24l21.16-21.38-0.52-5.14c-0.45-4.4-4.41-17.21-5.74-18.57-0.24-0.25-4.55-0.49-9.58-0.54-10.47-0.11-11.91-0.95-11.74-6.86 0.07-2.23-0.43-4.73-1.11-5.55s-1.312-3.65-1.404-6.28-0.346-4.91-0.563-5.05c-0.218-0.15-1.742-1.12-3.388-2.15l-2.992-1.87 4.356-6.42c4.301-6.33 4.351-6.508 3.681-13.761-0.844-9.196 0.79-15.553 5.49-21.353 1.96-2.416 3.9-5.507 4.32-6.869 1.05-3.431 7.7-7.569 14.14-8.791 2.96-0.562 6.84-1.587 8.63-2.276 4.49-1.736 17.4-1.782 23.27-0.084 5.11 1.483 11.7 7.443 17.76 16.079 3.62 5.173 7.81 6.676 11.66 4.193 2.96-1.908 12.14-3.709 9.54-1.872-1.33 0.937-1.13 1.156 1.08 1.198 3.2 0.06 8.18 3.229 5.08 3.229-2.46 0-2.31 0.975 0.65 4.27 2.91 3.231 5.44 10.085 5.32 14.379-0.04 1.656-1.08 4.277-2.29 5.818-1.22 1.55-3.29 6.16-4.61 10.25-2.01 3.39-3.53 6.78 0.79 10.16 2.46 2.12 2.75 2.74 1.28 2.74-2.2 0-2.39 1.37-0.65 4.63 1.24 2.32 1.61 4.21 1.87 9.65 0.08 1.69 1.94 4.99 4.47 7.91 4.03 4.66 5.27 7.89 3.64 9.52-0.38 0.38-1.63-0.52-2.78-1.98-3.06-3.89-3.96-3.33-4.33 2.71-0.44 7.24-2.63 5.82-4.21-2.74-1.53-8.25-1.79-8.59-4.37-5.64-1.97 2.27-2.1 2.29-1.63 0.29 1.48-6.37 1.78-10.28 0.78-10.28-1.47 0-6.59 7.63-6.59 9.82 0 1.94-4.97 4.65-6.64 3.62-0.59-0.37-2.01 0.19-3.16 1.23-2.04 1.85-2.1 1.79-2.1-2.06 0-4.08-1.7-5.33-2.93-2.14-1.04 2.71 5.41 12.93 18.08 28.64 8.65 10.74 14.08 34.28 14.06 60.97 0 12.19 3.06 28.9 7.06 38.45 1.37 3.27 3.08 8.87 3.79 12.44s2.45 10.88 3.86 16.24c2.56 9.7 3.34 14.21 6.41 36.72 2.38 17.46 3.37 15.77-9.16 15.77h-10.78l-1.15-4.6c-1.97-7.87-4.39-16.07-8.21-27.87-6.23-19.23-6.69-20.89-7.78-28.14-0.97-6.47-3.23-13.34-9.05-27.6-1.22-2.97-3.79-9.9-5.71-15.4-1.93-5.49-3.74-10.22-4.02-10.51-1.21-1.21-11.92 22.02-13.28 28.79-1.56 7.75-4.11 25.68 1.62 33.52 3.33 4.56 23.5 20.77 26.93 51.12 0.04 0.38-20.42 0.69-45.37 0.69h-45.366l-0.73-3.52zm74.656-219.37c0.35-0.57-0.35-1.56-1.56-2.2-1.87-1.01-2.19-0.85-2.19 1.02 0 2.24 2.59 3.05 3.75 1.18zm1.66-5.47c0-0.59-0.81-1.08-1.79-1.08-1.58 0-1.55-0.27 0.27-2.27 1.13-1.26 3.52-3.04 5.3-3.97 1.92-0.99 2.68-1.88 1.86-2.16-1.1-0.37-1.12-0.81-0.1-2.04 0.72-0.86 1.45-2.89 1.62-4.49 0.17-1.61 0.89-5.18 1.59-7.93 1.32-5.106 0.7-10.689-1.18-10.689-0.57 0-1.31 1.339-1.65 2.976-1.65 8.043-3.06 11.383-7.02 16.663-3.63 4.82-4.31 6.56-4.31 10.91 0 4.79 0.19 5.16 2.7 5.16 1.49 0 2.71-0.48 2.71-1.08z"/>
    <path id="path2230" fill="#eb00c3" d="m375.72 263.8c7.23-7.76 7.76-12.31 9.11-17.86-5.22 5.86-28.91-4.41-15.47-25.75 4.75-7.55 26.58-19.62 41.06-34.24l21.16-21.38-0.52-5.14c-0.45-4.4-4.41-17.21-5.73-18.57-0.25-0.25-4.56-0.49-9.59-0.54-10.46-0.11-11.9-0.95-11.73-6.86 0.06-2.23-0.44-4.73-1.12-5.55s-1.31-3.65-1.4-6.28-0.35-4.91-0.56-5.05c-0.22-0.15-1.75-1.12-3.39-2.15l-2.99-1.87 4.35-6.42c4.3-6.33 4.35-6.508 3.68-13.761-0.84-9.196 0.79-15.553 5.49-21.353 1.96-2.416 3.9-5.507 4.32-6.869 1.05-3.431 7.71-7.569 14.14-8.791 2.96-0.562 6.85-1.587 8.63-2.276 4.5-1.736 17.41-1.782 23.27-0.084 5.12 1.483 11.7 7.443 17.76 16.079 3.63 5.173 7.81 6.676 11.66 4.193 2.96-1.908 12.14-3.709 9.54-1.872-1.33 0.937-1.13 1.156 1.08 1.198 3.2 0.06 8.18 3.229 5.08 3.229-2.46 0-2.31 0.975 0.66 4.27 2.9 3.231 5.44 10.085 5.32 14.379-0.05 1.656-1.08 4.277-2.3 5.818-1.22 1.55-3.29 6.16-4.6 10.25l-1.55 4.78c-0.91 1.79-0.83 3.59 2.33 5.38 2.46 2.12 2.75 2.74 1.29 2.74-2.2 0-2.4 1.37-0.66 4.63 1.25 2.32 1.61 4.21 1.87 9.65 0.08 1.69 1.94 4.99 4.47 7.91 4.03 4.66 5.27 7.89 3.64 9.52-0.37 0.38-1.63-0.52-2.78-1.98-3.06-3.89-3.96-3.33-4.32 2.71-0.44 7.24-2.64 5.82-4.22-2.74-1.52-8.25-1.79-8.59-4.36-5.64-1.98 2.27-2.11 2.29-1.64 0.29 1.48-6.37 1.78-10.28 0.78-10.28-1.47 0-6.58 7.63-6.58 9.82 0 1.94-4.98 4.65-6.65 3.62-0.58-0.37-2.01 0.19-3.16 1.23-2.04 1.85-2.1 1.79-2.1-2.06 0-4.08-1.7-5.33-2.92-2.14-1.04 2.71 5.41 12.93 18.07 28.64 8.65 10.74 14.08 34.28 14.07 60.97-0.01 12.19 3.06 28.9 7.05 38.45 1.37 3.27 3.08 8.87 3.79 12.44 0.72 3.57 2.45 10.88 3.86 16.24 2.56 9.7 3.35 14.21 6.42 36.72 2.38 17.46 3.36 15.77-9.17 15.77h-10.78l-1.15-4.6c-1.97-7.87-4.39-16.07-8.21-27.87-6.23-19.23-6.69-20.89-7.78-28.14-0.97-6.47-3.23-13.34-9.05-27.6-1.21-2.97-3.78-9.9-5.71-15.4-1.92-5.49-3.73-10.22-4.02-10.51-1.21-1.21-11.92 22.02-13.28 28.79-1.55 7.75-4.11 25.68 1.63 33.52 3.32 4.56 23.49 20.77 26.92 51.12 0.05 0.38-20.41 0.69-45.37 0.69 0 0-24.05-0.31-45.36 0-44.21 0.63-56.68-56.49-22.28-93.42zm96.2-129.47c0.35-0.57-0.35-1.56-1.55-2.2-1.88-1.01-2.2-0.85-2.2 1.02 0 2.24 2.6 3.05 3.75 1.18zm1.66-5.47c0-0.59-0.8-1.08-1.79-1.08-1.58 0-1.55-0.27 0.27-2.27 1.13-1.26 3.52-3.04 5.31-3.97 1.91-0.99 2.67-1.88 1.85-2.16-1.1-0.37-1.12-0.81-0.09-2.04 0.71-0.86 1.44-2.89 1.61-4.49 0.17-1.61 0.89-5.18 1.6-7.93 1.31-5.106 0.69-10.689-1.18-10.689-0.58 0-1.32 1.339-1.65 2.976-1.66 8.043-3.06 11.383-7.03 16.663-3.62 4.82-4.31 6.56-4.31 10.91 0 4.79 0.2 5.16 2.71 5.16 1.48 0 2.7-0.48 2.7-1.08z"/>
    <path id="path2232" d="m555.1 353.7c-0.4-1.94-1.93-7.75-3.39-12.91-1.46-5.17-2.82-11.25-3.01-13.53-0.19-2.27-1.35-7.54-2.57-11.71-4.88-16.61-6.83-55.78-3.47-69.61 0.99-4.08 0.85-5.06-1.1-7.81-2.8-3.92-3.82-12.11-2.25-17.94 1.66-6.15 4.72-9.78 28.94-34.24l21.16-21.38-0.52-5.14c-0.45-4.4-4.41-17.21-5.73-18.57-0.24-0.25-4.56-0.49-9.59-0.54-10.46-0.11-11.9-0.95-11.73-6.86 0.06-2.23-0.44-4.73-1.12-5.55s-1.31-3.65-1.4-6.28-0.34-4.91-0.56-5.05c-0.22-0.15-1.74-1.12-3.39-2.15l-2.99-1.87 4.35-6.42c4.3-6.33 4.35-6.508 3.69-13.761-0.85-9.196 0.78-15.553 5.48-21.353 1.96-2.416 3.9-5.507 4.32-6.869 1.05-3.431 7.71-7.569 14.14-8.791 2.96-0.562 6.85-1.587 8.63-2.276 4.5-1.736 17.41-1.782 23.27-0.084 5.12 1.483 11.7 7.443 17.76 16.079 3.63 5.173 7.81 6.676 11.66 4.193 2.96-1.908 12.14-3.709 9.54-1.872-1.32 0.937-1.13 1.156 1.09 1.198 3.19 0.06 8.17 3.229 5.07 3.229-2.45 0-2.3 0.975 0.66 4.27 2.9 3.231 5.44 10.085 5.32 14.379-0.05 1.656-1.08 4.277-2.3 5.818-1.21 1.55-3.29 6.16-4.6 10.25-2.02 3.39-3.54 6.78 0.78 10.16 2.46 2.12 2.75 2.74 1.29 2.74-2.2 0-2.4 1.37-0.66 4.63 1.25 2.32 1.61 4.21 1.87 9.65 0.08 1.69 1.94 4.99 4.47 7.91 4.04 4.66 5.27 7.89 3.64 9.52-0.37 0.38-1.63-0.52-2.78-1.98-3.06-3.89-3.95-3.33-4.32 2.71-0.44 7.24-2.64 5.82-4.22-2.74-1.52-8.25-1.79-8.59-4.36-5.64-1.98 2.27-2.11 2.29-1.64 0.29 1.48-6.37 1.78-10.28 0.78-10.28-1.47 0-6.58 7.63-6.58 9.82 0 1.94-4.98 4.65-6.64 3.62-0.59-0.37-2.02 0.19-3.17 1.23-2.04 1.85-2.1 1.79-2.1-2.06 0-4.08-1.7-5.33-2.92-2.14-1.04 2.71 5.41 12.93 18.07 28.64 8.65 10.74 14.08 34.28 14.07 60.97-0.01 12.19 3.06 28.9 7.06 38.45 1.37 3.27 3.07 8.87 3.78 12.44 0.72 3.57 2.46 10.88 3.87 16.24 2.55 9.7 3.34 14.21 6.41 36.72 2.38 17.46 3.37 15.77-9.17 15.77h-10.78l-1.15-4.6c-1.97-7.87-4.38-16.07-8.21-27.87-6.23-19.23-6.69-20.89-7.78-28.14-0.97-6.47-3.22-13.34-9.05-27.6-1.21-2.97-3.78-9.9-5.71-15.4-1.92-5.49-3.73-10.22-4.02-10.51-1.2-1.21-11.91 22.02-13.27 28.79-1.56 7.75-4.12 25.68 1.62 33.52 3.33 4.56 23.5 20.77 26.92 51.12 0.05 0.38-20.41 0.69-45.36 0.69h-45.37l-0.73-3.52zm74.66-219.37c0.35-0.57-0.36-1.56-1.56-2.2-1.87-1.01-2.2-0.85-2.2 1.02 0 2.24 2.6 3.05 3.76 1.18zm1.65-5.47c0-0.59-0.8-1.08-1.79-1.08-1.58 0-1.55-0.27 0.27-2.27 1.13-1.26 3.52-3.04 5.31-3.97 1.92-0.99 2.67-1.88 1.85-2.16-1.1-0.37-1.12-0.81-0.09-2.04 0.71-0.86 1.44-2.89 1.61-4.49 0.17-1.61 0.89-5.18 1.6-7.93 1.31-5.106 0.7-10.689-1.18-10.689-0.57 0-1.32 1.339-1.65 2.976-1.65 8.043-3.06 11.383-7.03 16.663-3.62 4.82-4.31 6.56-4.31 10.91 0 4.79 0.2 5.16 2.71 5.16 1.49 0 2.7-0.48 2.7-1.08z"/>
  </g>
  <metadata>
    <rdf:RDF>
      <cc:Work>
        <dc:format>image/svg+xml</dc:format>
        <dc:type rdf:resource="http://purl.org/dc/dcmitype/StillImage"/>
        <cc:license rdf:resource="http://creativecommons.org/licenses/publicdomain/"/>
        <dc:publisher>
          <cc:Agent rdf:about="http://openclipart.org/">
            <dc:title>Openclipart</dc:title>
          </cc:Agent>
        </dc:publisher>
        <dc:title>pregnancy silhouet</dc:title>
        <dc:date>2006-10-23T09:59:44</dc:date>
        <dc:description>9 months, 9 months, belly, belly, breast, breast, breasts, breasts, child, child, clip art, clipart, difference, difference, feed, feed, female, female, foetus, foetus, head, head, heavy, heavy, human, human, image, lady, lady, media, milk, milk, mother, mother, people, people, png, pregnancy, pregnancy, pregnant, pregnant, profile, profile, public domain, reproduction, reproduction, sex, sex, silhouette, silhouette, svg, woman, woman, young, young, </dc:description>
        <dc:source>http://openclipart.org/detail/852/pregnancy-silhouet-by-molumen</dc:source>
        <dc:creator>
          <cc:Agent>
            <dc:title>molumen</dc:title>
          </cc:Agent>
        </dc:creator>
        <dc:subject>
          <rdf:Bag>
            <rdf:li>9 months</rdf:li>
            <rdf:li>belly</rdf:li>
            <rdf:li>breast</rdf:li>
            <rdf:li>breasts</rdf:li>
            <rdf:li>child</rdf:li>
            <rdf:li>clip art</rdf:li>
            <rdf:li>clipart</rdf:li>
            <rdf:li>difference</rdf:li>
            <rdf:li>feed</rdf:li>
            <rdf:li>female</rdf:li>
            <rdf:li>foetus</rdf:li>
            <rdf:li>head</rdf:li>
            <rdf:li>heavy</rdf:li>
            <rdf:li>human</rdf:li>
            <rdf:li>image</rdf:li>
            <rdf:li>lady</rdf:li>
            <rdf:li>media</rdf:li>
            <rdf:li>milk</rdf:li>
            <rdf:li>mother</rdf:li>
            <rdf:li>people</rdf:li>
            <rdf:li>png</rdf:li>
            <rdf:li>pregnancy</rdf:li>
            <rdf:li>pregnant</rdf:li>
            <rdf:li>profile</rdf:li>
            <rdf:li>public domain</rdf:li>
            <rdf:li>reproduction</rdf:li>
            <rdf:li>sex</rdf:li>
            <rdf:li>silhouette</rdf:li>
            <rdf:li>svg</rdf:li>
            <rdf:li>woman</rdf:li>
            <rdf:li>young</rdf:li>
          </rdf:Bag>
        </dc:subject>
      </cc:Work>
      <cc:License rdf:about="http://creativecommons.org/licenses/publicdomain/">
        <cc:permits rdf:resource="http://creativecommons.org/ns#Reproduction"/>
        <cc:permits rdf:resource="http://creativecommons.org/ns#Distribution"/>
        <cc:permits rdf:resource="http://creativecommons.org/ns#DerivativeWorks"/>
      </cc:License>
    </rdf:RDF>
  </metadata>
</svg>
